<svg width="20" height="20" viewBox="0 0 20 20" fill="none" xmlns="http://www.w3.org/2000/svg">
<path d="M7.63166 17.3096V14.754C7.63165 14.1039 8.16158 13.5758 8.81816 13.5714H11.2232C11.8829 13.5714 12.4177 14.1009 12.4177 14.754V14.754V17.3175C12.4176 17.8694 12.8625 18.3205 13.4198 18.3334H15.0232C16.6216 18.3334 17.9173 17.0506 17.9173 15.4683V15.4683V8.19828C17.9088 7.57577 17.6135 6.99121 17.1156 6.61094L11.6321 2.23783C10.6714 1.47639 9.30582 1.47639 8.34516 2.23783L2.88567 6.61888C2.38587 6.9976 2.09014 7.58314 2.08398 8.20621V15.4683C2.08398 17.0506 3.37971 18.3334 4.97808 18.3334H6.58145C7.15261 18.3334 7.61563 17.875 7.61563 17.3096V17.3096" stroke="#9EA3A9" stroke-width="1.5" stroke-linecap="round" stroke-linejoin="round"/>
</svg>
