<svg width="72" height="66" viewBox="0 0 72 66" fill="none" xmlns="http://www.w3.org/2000/svg">
<path d="M27.5536 63.8128L29.2549 65.9764C29.2549 65.9764 37.6216 52.5669 47.3494 51.1797C47.9165 51.4589 48.5883 51.4415 49.1292 51.1187L52.27 49.2953C52.9418 48.8852 53.2908 48.1087 53.1424 47.3323C53.1424 47.3323 57.8275 39.0179 67.8257 37.7179L71.4725 37.02L46.3897 14.0659L7.36523 29.9357L27.5536 63.8128Z" fill="#E8505B"/>
<path d="M23.4171 62.0157L26.3747 65.9766C26.3747 65.9766 33.1885 50.6041 50.1401 49.531L33.4589 32.2915C33.4589 32.2828 21.4192 57.2783 23.4171 62.0157Z" fill="#EBEBEB"/>
<path d="M0.585938 34.4114C0.585938 34.4114 7.05076 13.5512 28.4693 21.1764L50.1496 49.5221C50.1496 49.5221 27.9458 45.5264 22.7199 63.8128L0.585938 34.4114Z" fill="#F5F5F5"/>
<path d="M50.1487 49.5307C50.1487 49.5307 56.8491 33.1462 71.48 35.1615L50.1487 10.3579L29.2188 22.1621L50.1487 49.5307Z" fill="#EBEBEB"/>
<path d="M28.4701 21.22C28.4701 21.22 26.0359 8.83129 35.6067 3.43085L41.8795 0.15918L63.8215 24.7272C63.8215 24.7272 48.6759 33.0155 50.1503 49.5658L28.4701 21.22Z" fill="#F5F5F5"/>
<path d="M50.1497 49.5308C50.1235 49.5483 49.8007 49.1731 49.2424 48.4665C48.6404 47.6987 47.8465 46.6867 46.8955 45.4652C44.8801 42.8566 42.193 39.3669 39.218 35.5106C36.2342 31.6632 33.5296 28.1821 31.5143 25.5735C30.5633 24.3521 29.7694 23.3488 29.1674 22.5723C28.6178 21.8656 28.3211 21.4556 28.3473 21.4381C28.3735 21.4207 28.7137 21.7784 29.307 22.4589C29.909 23.1307 30.7378 24.134 31.7673 25.3728C33.8175 27.8593 36.5832 31.3404 39.5844 35.2315C42.5856 39.1226 45.2553 42.6734 47.1572 45.2733C48.0646 46.5296 48.8149 47.5678 49.3907 48.3618C49.8967 49.0946 50.1672 49.5047 50.1497 49.5308Z" fill="#263238"/>
<path d="M42.3496 7.38291C42.3671 7.47015 41.3027 7.67082 39.837 8.55199C38.3713 9.41571 36.5304 10.9687 34.9949 13.08C33.4158 15.1651 32.5346 17.4073 32.142 19.065C31.7581 20.7313 31.8192 21.8132 31.7232 21.8132C31.6883 21.8132 31.6709 21.5514 31.6534 21.0629C31.6185 20.5743 31.6883 19.8676 31.8279 19.0039C32.1507 17.2939 33.0057 14.9557 34.6285 12.8182C36.2076 10.6546 38.1357 9.10162 39.6799 8.28153C40.4564 7.87148 41.1282 7.62719 41.5993 7.50505C42.0791 7.40036 42.3409 7.35673 42.3496 7.38291Z" fill="#263238"/>
<path d="M53.1516 17.7562C53.1865 17.8347 52.1657 18.2884 50.7262 19.3266C50.0021 19.8414 49.1994 20.5393 48.3793 21.3681C47.5767 22.2231 46.7653 23.2265 46.0412 24.3694C45.3345 25.521 44.7936 26.6988 44.3835 27.7981C43.9996 28.9061 43.7292 29.9356 43.5896 30.808C43.293 32.5616 43.3453 33.6783 43.2581 33.6783C43.2232 33.6783 43.197 33.3992 43.1708 32.8931C43.1534 32.6401 43.1446 32.3261 43.1708 31.9684C43.197 31.6106 43.197 31.2006 43.2755 30.7469C43.3802 29.8483 43.6158 28.7839 43.9909 27.641C44.3835 26.5068 44.9332 25.2941 45.6573 24.1076C46.3989 22.9298 47.2451 21.9091 48.0827 21.0453C48.9377 20.2078 49.784 19.5186 50.5517 19.03C50.9181 18.7595 51.2846 18.5763 51.5986 18.4018C51.9127 18.2186 52.1919 18.0877 52.4275 17.9918C52.8811 17.826 53.1429 17.7213 53.1516 17.7562Z" fill="#263238"/>
<path d="M56.6492 20.7142C56.6841 20.7927 55.5761 21.2813 54.0231 22.4504C53.2379 23.0088 52.3829 23.8027 51.4843 24.7013C50.6118 25.6348 49.7045 26.7166 48.8844 27.9381C48.073 29.1682 47.41 30.4158 46.8952 31.5849C46.4241 32.7714 46.0402 33.862 45.8483 34.8129C45.4295 36.7062 45.4906 37.9188 45.4034 37.9188C45.3685 37.9188 45.351 37.6222 45.3248 37.0639C45.3074 36.7847 45.3161 36.4531 45.3597 36.0605C45.3859 35.6679 45.4295 35.223 45.5342 34.7431C45.6825 33.766 46.0402 32.6406 46.5026 31.4191C47.0087 30.2152 47.6717 28.9414 48.5005 27.6851C49.3468 26.4375 50.2716 25.3382 51.1789 24.4047C52.1212 23.5061 53.0024 22.7296 53.8312 22.1887C54.2325 21.9008 54.6164 21.6739 54.9566 21.482C55.2969 21.2813 55.5935 21.1243 55.8465 21.0196C56.3525 20.7927 56.6404 20.6793 56.6492 20.7142Z" fill="#263238"/>
<path d="M58.8385 23.5147C58.8821 23.5932 57.7567 24.0818 56.2212 25.277C55.436 25.8528 54.6072 26.6642 53.726 27.5977C52.8797 28.5574 52.016 29.6829 51.2221 30.9305C50.4456 32.1955 49.8262 33.4693 49.3376 34.6558C48.8926 35.8598 48.5349 36.9678 48.3604 37.9187C47.9678 39.8207 48.0289 41.0421 47.9329 41.0508C47.8981 41.0508 47.8719 40.7455 47.8544 40.1958C47.837 39.9166 47.8457 39.5851 47.8806 39.1925C47.9068 38.7999 47.9417 38.355 48.0376 37.8664C48.1685 36.8805 48.5088 35.7464 48.9363 34.5075C49.4161 33.2861 50.0355 31.9861 50.8207 30.6949C51.6321 29.4124 52.522 28.2782 53.4032 27.3185C54.3192 26.385 55.1917 25.5824 56.0118 25.024C56.4044 24.7186 56.7883 24.4918 57.1285 24.2999C57.4601 24.0905 57.7567 23.9334 58.0184 23.8287C58.5419 23.5932 58.8298 23.4885 58.8385 23.5147Z" fill="#263238"/>
<path d="M40.7437 44.9417C40.7175 45.0202 39.531 44.6101 37.5331 44.4357C35.5526 44.2524 32.7259 44.4182 29.8992 45.5786C27.0725 46.7389 24.9437 48.6059 23.6612 50.124C22.3613 51.6508 21.8029 52.785 21.7244 52.7413C21.6982 52.7326 21.8116 52.436 22.0821 51.93C22.3438 51.4239 22.78 50.726 23.4082 49.9233C24.6558 48.318 26.8107 46.355 29.7247 45.1598C32.6387 43.9645 35.5526 43.8511 37.568 44.1216C38.58 44.2524 39.3827 44.4444 39.9236 44.6189C40.4645 44.7846 40.7524 44.9155 40.7437 44.9417Z" fill="#263238"/>
<path d="M37.8745 41.365C37.8484 41.4435 36.6618 41.0335 34.6639 40.859C32.6835 40.6758 29.8568 40.8416 27.03 42.0019C24.2033 43.1623 22.0746 45.0293 20.7921 46.5473C19.4921 48.0741 18.9337 49.2083 18.8552 49.1647C18.8291 49.156 18.9425 48.8593 19.2129 48.3533C19.4747 47.8473 19.9109 47.1493 20.539 46.3467C21.7866 44.7414 23.9416 42.7784 26.8556 41.5831C29.7695 40.3879 32.6835 40.2745 34.6988 40.5449C35.7109 40.6758 36.5135 40.8677 37.0544 41.0422C37.5954 41.208 37.8833 41.3388 37.8745 41.365Z" fill="#263238"/>
<path d="M34.9956 37.7879C34.9695 37.8664 33.7829 37.4563 31.785 37.2818C29.8046 37.0986 26.9779 37.2644 24.1511 38.4247C21.3244 39.5851 19.1956 41.4521 17.9132 42.9702C16.6132 44.497 16.0548 45.6312 15.9763 45.5875C15.9501 45.5788 16.0636 45.2822 16.334 44.7762C16.5958 44.2701 17.032 43.5722 17.6601 42.7695C18.9077 41.1642 21.0627 39.2012 23.9766 38.006C26.8906 36.8107 29.8046 36.6973 31.8199 36.9678C32.832 37.0986 33.6346 37.2906 34.1755 37.4651C34.7252 37.6308 35.0044 37.7617 34.9956 37.7879Z" fill="#263238"/>
<path d="M32.1245 34.2107C32.0984 34.2892 30.9118 33.8792 28.9139 33.7047C26.9335 33.5215 24.1068 33.6873 21.28 34.8476C18.4533 36.008 16.3246 37.875 15.0421 39.393C13.7421 40.9198 13.1837 42.054 13.1052 42.0104C13.0791 42.0017 13.1925 41.705 13.4629 41.199C13.7247 40.693 14.1609 39.995 14.789 39.1924C16.0366 37.5871 18.1916 35.6241 21.1056 34.4288C24.0195 33.2336 26.9335 33.1202 28.9488 33.3906C29.9609 33.5215 30.7635 33.7134 31.3044 33.8879C31.8454 34.0537 32.1333 34.1845 32.1245 34.2107Z" fill="#263238"/>
<path d="M29.2534 30.6248C29.2273 30.7033 28.0407 30.2932 26.0428 30.1188C24.0624 29.9355 21.2357 30.1013 18.409 31.2617C15.5822 32.422 13.4535 34.289 12.171 35.8071C10.871 37.3339 10.3127 38.4681 10.2341 38.4244C10.208 38.4157 10.3214 38.1191 10.5918 37.6131C10.8536 37.107 11.2898 36.4091 11.918 35.6064C13.1656 34.0011 15.3205 32.0381 18.2345 30.8429C21.1484 29.6476 24.0624 29.5342 26.0777 29.8047C27.0898 29.9355 27.8924 30.1275 28.4333 30.302C28.9743 30.4765 29.2622 30.5986 29.2534 30.6248Z" fill="#263238"/>
<path d="M26.3834 27.0481C26.3572 27.1266 25.1707 26.7166 23.1728 26.5421C21.1923 26.3589 18.3656 26.5247 15.5389 27.685C12.7122 28.8454 10.5834 30.7124 9.30091 32.2304C8.00097 33.7572 7.4426 34.8914 7.37281 34.8478C7.34663 34.8391 7.46005 34.5424 7.73051 34.0364C7.99224 33.5304 8.42847 32.8324 9.05663 32.0298C10.3042 30.4245 12.4592 28.4615 15.3731 27.2662C18.2871 26.071 21.2011 25.9576 23.2164 26.228C24.2285 26.3589 25.0311 26.5508 25.572 26.7253C26.1042 26.8998 26.3921 27.0219 26.3834 27.0481Z" fill="#263238"/>
<path d="M34.3496 22.668L40.3433 29.3161C40.3433 29.3161 42.2103 20.1205 50.3503 16.6307L44.025 9.88672C44.025 9.88672 35.7193 12.6873 34.3496 22.668Z" fill="#EBEBEB"/>
</svg>
