<svg width="53" height="51" viewBox="0 0 53 51" fill="none" xmlns="http://www.w3.org/2000/svg">
<path d="M2.85669 29.4198L1.9668 31.3741C1.9668 31.3741 14.2596 32.3774 18.7003 38.6154C18.709 39.1126 18.962 39.5663 19.3808 39.8281L21.7713 41.3548C22.2948 41.6689 22.9578 41.634 23.4464 41.2589C23.4464 41.2589 30.8884 41.5293 35.364 47.9941L37.1525 50.2712L45.083 23.8012L19.1016 3.29004L2.85669 29.4198Z" fill="#E8505B"/>
<path d="M2.62132 25.9128L0.9375 29.3851C0.9375 29.3851 14.0329 28.6086 20.8467 39.9679L26.823 22.231C26.823 22.2223 5.18631 22.833 2.62132 25.9128Z" fill="#EBEBEB"/>
<path d="M13.5796 0.193033C13.5796 0.193033 30.3567 -2.79945 32.7385 14.7803L20.8471 39.9591C20.8471 39.9591 15.6648 23.1383 1.12109 26.061L13.5796 0.193033Z" fill="#F5F5F5"/>
<path d="M20.8457 39.9679C20.8457 39.9679 34.6042 38.7465 38.4517 49.6084L48.0049 25.939L32.3271 15.6528L20.8457 39.9679Z" fill="#EBEBEB"/>
<path d="M32.7119 14.798C32.7119 14.798 40.433 8.67342 47.6045 13.3759L52.115 16.5516L42.9457 40.5613C42.9457 40.5613 31.7784 33.0234 20.8379 39.9768L32.7119 14.798Z" fill="#F5F5F5"/>
<path d="M20.8469 39.968C20.8207 39.9506 20.9603 39.5928 21.2395 38.9472C21.571 38.2231 21.9723 37.3158 22.4609 36.2339C23.5602 33.8696 24.9997 30.7724 26.5963 27.3437C28.1929 23.915 29.6324 20.8178 30.7404 18.4535C31.2377 17.3804 31.6565 16.4818 31.9967 15.7576C32.2933 15.1208 32.4766 14.7805 32.5027 14.7892C32.5289 14.798 32.4068 15.1731 32.1538 15.8274C31.9095 16.4818 31.5169 17.424 31.0283 18.5844C30.0512 20.8963 28.6291 24.0633 27.0063 27.5357C25.3836 31.008 23.8655 34.1313 22.7488 36.3735C22.1904 37.499 21.728 38.3976 21.3965 39.0258C21.0737 39.6452 20.873 39.9767 20.8469 39.968Z" fill="#263238"/>
<path d="M47.5874 18.9505C47.535 19.0116 46.8458 18.4794 45.6069 17.86C44.3768 17.2405 42.5447 16.6037 40.4421 16.4379C38.3395 16.2721 36.4288 16.6124 35.1114 17.0312C33.7853 17.4499 33.0263 17.8687 32.9914 17.7989C32.9739 17.7727 33.1571 17.6506 33.4974 17.4412C33.8289 17.2318 34.3524 16.9788 35.0155 16.7258C36.3416 16.2198 38.3046 15.8185 40.4857 15.9842C42.6581 16.1587 44.5426 16.8654 45.7727 17.5808C46.3921 17.9298 46.8633 18.2613 47.1599 18.523C47.4478 18.776 47.6048 18.9244 47.5874 18.9505Z" fill="#263238"/>
<path d="M46.8804 21.847C46.828 21.9081 46.1388 21.3759 44.8999 20.7565C43.6698 20.137 41.8376 19.5001 39.735 19.3344C37.6324 19.1686 35.7218 19.5089 34.4044 19.9276C33.087 20.3464 32.3192 20.7652 32.2843 20.6954C32.2669 20.6692 32.4501 20.5471 32.7904 20.3377C33.1219 20.1283 33.6454 19.8753 34.3084 19.6223C35.6345 19.1163 37.5975 18.7149 39.7786 18.8807C41.951 19.0552 43.8355 19.7619 45.0657 20.4773C45.6851 20.8263 46.1562 21.1578 46.4529 21.4195C46.7495 21.6725 46.9065 21.8208 46.8804 21.847Z" fill="#263238"/>
<path d="M45.5796 24.7264C45.5272 24.7875 44.8467 24.2553 43.5991 23.6359C42.369 23.0164 40.5368 22.3795 38.4342 22.2138C36.3317 22.048 34.421 22.3883 33.1036 22.807C31.7775 23.2258 31.0185 23.6446 30.9836 23.5748C30.9661 23.5486 31.1493 23.4265 31.4896 23.2171C31.8211 23.0077 32.3446 22.7547 33.0076 22.5017C34.3338 21.9957 36.2968 21.5943 38.4779 21.7601C40.6503 21.9346 42.5347 22.6413 43.7649 23.3567C44.3843 23.7057 44.8554 24.0372 45.1521 24.2989C45.44 24.5519 45.597 24.709 45.5796 24.7264Z" fill="#263238"/>
<path d="M44.7612 27.6141C44.7089 27.6752 44.0196 27.143 42.7808 26.5236C41.5506 25.9041 39.7185 25.2672 37.6159 25.1015C35.5133 24.9357 33.6026 25.276 32.2852 25.6947C30.9679 26.1135 30.2001 26.5323 30.1652 26.4625C30.1478 26.4363 30.331 26.3142 30.6712 26.1048C31.0028 25.8954 31.5262 25.6424 32.1893 25.3894C33.5154 24.8834 35.4784 24.482 37.6595 24.6478C39.8319 24.8223 41.7164 25.529 42.9465 26.2444C43.566 26.5933 44.0371 26.9249 44.3337 27.1866C44.6303 27.4309 44.7787 27.5879 44.7612 27.6141Z" fill="#263238"/>
<path d="M43.9487 30.6673C43.8964 30.7284 43.2071 30.1962 41.9683 29.5768C40.7381 28.9573 38.906 28.3205 36.8034 28.1547C34.7008 27.9889 32.7901 28.3292 31.4727 28.748C30.1466 29.1667 29.3876 29.5855 29.3527 29.5157C29.3353 29.4895 29.5185 29.3674 29.8587 29.158C30.1903 28.9486 30.7137 28.6956 31.3768 28.4426C32.7029 27.9366 34.6659 27.5353 36.847 27.701C39.0194 27.8755 40.9039 28.5822 42.134 29.2976C42.7535 29.6466 43.2246 29.9781 43.5212 30.2398C43.8091 30.4928 43.9662 30.6412 43.9487 30.6673Z" fill="#263238"/>
<path d="M43.1544 34.1575C43.1021 34.2273 42.3605 33.634 40.9995 32.9884C40.3277 32.6482 39.4814 32.3428 38.5305 32.0462C37.5708 31.7757 36.4977 31.5402 35.3635 31.4093C34.2206 31.2872 33.1213 31.2697 32.1354 31.3308C31.1496 31.4268 30.2597 31.5402 29.5356 31.7496C28.0786 32.1247 27.2498 32.5958 27.2061 32.5173C27.1887 32.4911 27.3893 32.3603 27.7645 32.1422C27.9477 32.0287 28.1833 31.9153 28.4712 31.8019C28.7504 31.6798 29.0732 31.5489 29.4483 31.4442C30.1812 31.1912 31.0885 31.0341 32.1093 30.9207C33.13 30.8335 34.2555 30.8422 35.4246 30.9644C36.5936 31.1039 37.6929 31.357 38.6701 31.6536C39.6385 31.9851 40.4935 32.3254 41.1565 32.7092C41.4968 32.8837 41.7934 33.0757 42.0464 33.2414C42.3082 33.4072 42.5175 33.5555 42.6833 33.7038C42.9974 33.9656 43.1719 34.1313 43.1544 34.1575Z" fill="#263238"/>
<path d="M41.9955 36.6789C41.9431 36.7487 41.2015 36.1554 39.8231 35.5272C39.1426 35.1957 38.2788 34.9165 37.3279 34.6461C36.3594 34.4018 35.2776 34.2098 34.126 34.1052C32.9744 34.0266 31.8751 34.0441 30.8805 34.1313C29.8859 34.2535 28.996 34.3931 28.2719 34.6112C26.8149 35.0125 25.9774 35.4749 25.9425 35.4051C25.925 35.3789 26.1257 35.2481 26.5008 35.0299C26.684 34.9165 26.9196 34.8031 27.2075 34.681C27.4867 34.5501 27.8095 34.4192 28.1846 34.3058C28.9175 34.0441 29.8248 33.8609 30.8369 33.7126C31.8576 33.5991 32.9831 33.5642 34.1696 33.6515C35.3474 33.7562 36.4554 33.9656 37.45 34.236C38.4271 34.5414 39.2996 34.8642 39.9801 35.2393C40.3291 35.4051 40.6257 35.5883 40.8874 35.7628C41.1492 35.9286 41.3673 36.0769 41.5331 36.2165C41.8384 36.4869 42.0129 36.6527 41.9955 36.6789Z" fill="#263238"/>
<path d="M20.6548 31.8019C20.5763 31.8194 20.428 30.8422 19.826 29.4027C19.2327 27.9719 18.1072 26.0787 16.3013 24.5432C14.4953 23.0077 12.4451 22.1963 10.9445 21.8386C9.42642 21.4722 8.44055 21.4809 8.44928 21.4024C8.44928 21.3762 8.69356 21.3413 9.13851 21.3413C9.58346 21.3413 10.2291 21.3849 11.0143 21.5245C12.5759 21.8037 14.7222 22.5976 16.5979 24.1942C18.4737 25.7908 19.5991 27.7887 20.1226 29.2806C20.3931 30.0309 20.5414 30.659 20.6112 31.104C20.681 31.5489 20.6897 31.8019 20.6548 31.8019Z" fill="#263238"/>
<path d="M22.1118 28.53C22.0333 28.5474 21.885 27.5703 21.283 26.1307C20.6897 24.6999 19.5643 22.8067 17.7583 21.2712C15.9524 19.7357 13.9021 18.9243 12.4015 18.5666C10.8834 18.2002 9.89758 18.2089 9.90631 18.1304C9.90631 18.1042 10.1506 18.0693 10.5955 18.0693C11.0405 18.0693 11.6861 18.113 12.4713 18.2526C14.033 18.5317 16.1792 19.3257 18.055 20.9222C19.9307 22.5188 21.0562 24.5167 21.5796 26.0086C21.8501 26.7589 21.9984 27.3871 22.0682 27.832C22.1293 28.2769 22.138 28.53 22.1118 28.53Z" fill="#263238"/>
<path d="M23.5591 25.2585C23.4806 25.2759 23.3322 24.2988 22.7303 22.8592C22.137 21.4284 21.0115 19.5352 19.2056 17.9997C17.3996 16.4642 15.3494 15.6528 13.8488 15.2951C12.3307 14.9287 11.3448 14.9374 11.3536 14.8589C11.3536 14.8328 11.5979 14.7979 12.0428 14.7979C12.4878 14.7979 13.1334 14.8415 13.9186 14.9811C15.4802 15.2602 17.6265 16.0542 19.5022 17.6507C21.378 19.2473 22.5034 21.2452 23.0269 22.7371C23.2973 23.4874 23.4457 24.1156 23.5155 24.5605C23.5853 25.0055 23.594 25.2497 23.5591 25.2585Z" fill="#263238"/>
<path d="M25.0161 21.9865C24.9376 22.0039 24.7893 21.0268 24.1873 19.5873C23.594 18.1565 22.4686 16.2633 20.6626 14.7278C18.8567 13.1922 16.8064 12.3809 15.3058 12.0232C13.7877 11.6567 12.8019 11.6655 12.8106 11.5869C12.8106 11.5608 13.0549 11.5259 13.4998 11.5259C13.9448 11.5259 14.5904 11.5695 15.3756 11.7091C16.9373 11.9883 19.0835 12.7822 20.9592 14.3788C22.835 15.9753 23.9605 17.9732 24.4839 19.4651C24.7544 20.2154 24.9027 20.8436 24.9638 21.2885C25.0336 21.7335 25.0423 21.9778 25.0161 21.9865Z" fill="#263238"/>
<path d="M26.4653 18.715C26.3868 18.7325 26.2385 17.7553 25.6365 16.3158C25.0432 14.885 23.9178 12.9918 22.1118 11.4563C20.3059 9.92077 18.2556 9.10939 16.755 8.75169C15.237 8.38526 14.2511 8.39399 14.2598 8.31547C14.2598 8.28929 14.5041 8.25439 14.9491 8.25439C15.394 8.25439 16.0396 8.29802 16.8248 8.43761C18.3865 8.71679 20.5327 9.51072 22.4085 11.1073C24.2842 12.7039 25.4097 14.7018 25.9331 16.1936C26.2036 16.9439 26.3519 17.5721 26.4217 18.0171C26.4915 18.462 26.4915 18.7063 26.4653 18.715Z" fill="#263238"/>
<path d="M27.9224 15.4435C27.8438 15.461 27.6955 14.4838 27.0935 13.0443C26.5003 11.6135 25.3748 9.72029 23.5689 8.18478C21.7629 6.64928 19.7127 5.83791 18.212 5.4802C16.694 5.11378 15.7081 5.1225 15.7169 5.04398C15.7169 5.01781 15.9611 4.98291 16.4061 4.98291C16.851 4.98291 17.4966 5.02653 18.2818 5.16612C19.8435 5.44531 21.9897 6.23923 23.8655 7.83581C25.7412 9.43238 26.8667 11.4303 27.3902 12.9222C27.6606 13.6725 27.8089 14.3006 27.8787 14.7456C27.9398 15.1905 27.9485 15.4348 27.9224 15.4435Z" fill="#263238"/>
</svg>
