<svg width="68" height="68" viewBox="0 0 68 68" fill="none" xmlns="http://www.w3.org/2000/svg">
<path d="M3.1717 35.2583L1.69727 37.579C1.69727 37.579 17.1308 41.0077 21.6763 49.7147C21.5977 50.3429 21.842 50.9623 22.3306 51.3811L25.0962 53.7367C25.7069 54.234 26.5532 54.3038 27.2337 53.9112C27.2337 53.9112 36.63 55.5601 41.1841 64.555L43.0512 67.7569L57.7606 35.5462L28.3854 4.93213L3.1717 35.2583Z" fill="#E8505B"/>
<path d="M3.4855 30.7564L0.737305 34.8657C0.737305 34.8657 17.497 36.1743 24.1625 51.7911L34.8674 30.3202C34.8674 30.3202 7.28936 27.2928 3.4855 30.7564Z" fill="#EBEBEB"/>
<path d="M21.9118 0.0290858C21.9118 0.0290858 43.7403 -0.825909 43.6705 21.91L24.1627 51.7913C24.1627 51.7913 20.5333 29.5265 1.55762 30.6868L21.9118 0.0290858Z" fill="#F5F5F5"/>
<path d="M24.1621 51.8C24.1621 51.8 41.8466 52.6637 44.8129 67.1289L61.0927 38.7569L42.9895 22.9482L24.1621 51.8Z" fill="#EBEBEB"/>
<path d="M43.6358 21.9276C43.6358 21.9276 54.5065 15.5064 62.786 22.739L67.9509 27.5636L52.0985 56.4329C52.0985 56.4329 39.2387 44.9078 24.1279 51.8176L43.6358 21.9276Z" fill="#F5F5F5"/>
<path d="M24.162 51.7999C24.1358 51.7825 24.3888 51.355 24.8599 50.5872C25.3834 49.7584 26.0726 48.6766 26.9015 47.3679C28.69 44.6022 31.0805 40.9031 33.7327 36.8113C36.3675 32.7108 38.7493 29.0116 40.5378 26.2373C41.3666 24.9286 42.0559 23.8468 42.588 23.0267C43.0766 22.2676 43.3558 21.8576 43.382 21.875C43.4081 21.8925 43.1813 22.3287 42.7363 23.1226C42.3001 23.9078 41.6371 25.0333 40.8082 26.4118C39.1506 29.1687 36.7863 32.9377 34.1166 37.0643C31.4469 41.191 28.9866 44.8901 27.1719 47.5511C26.2908 48.8249 25.5666 49.8805 25.0083 50.6919C24.4935 51.416 24.1882 51.8174 24.162 51.7999Z" fill="#263238"/>
<path d="M61.7913 29.8145C61.7302 29.8755 60.9624 29.0642 59.4967 28.0521C58.7726 27.5374 57.8478 27.0139 56.7834 26.5166C55.7103 26.0455 54.4889 25.6093 53.1715 25.3126C51.8454 25.0335 50.5542 24.9113 49.3851 24.8939C48.216 24.9026 47.1516 24.9898 46.2791 25.1469C44.5255 25.4522 43.4873 25.871 43.4612 25.7925C43.4524 25.7663 43.6967 25.6442 44.1678 25.4522C44.4034 25.3475 44.6913 25.2429 45.0403 25.1469C45.3893 25.0509 45.7731 24.9113 46.2268 24.8328C47.108 24.6234 48.1898 24.5013 49.3938 24.4751C50.5978 24.4751 51.9239 24.5798 53.2762 24.8677C54.6285 25.1731 55.876 25.6267 56.9666 26.1415C58.0484 26.6737 58.9732 27.2408 59.6887 27.7991C60.0638 28.0609 60.3604 28.34 60.6309 28.5756C60.9101 28.8024 61.1195 29.0293 61.2939 29.2212C61.6429 29.5789 61.8174 29.7883 61.7913 29.8145Z" fill="#263238"/>
<path d="M60.3948 33.3652C60.3337 33.4263 59.5659 32.6149 58.1002 31.6029C57.3761 31.0882 56.4513 30.5647 55.3869 30.0674C54.3138 29.5963 53.0924 29.1601 51.775 28.8634C50.4489 28.5842 49.1577 28.4621 47.9886 28.4447C46.8195 28.4534 45.7551 28.5406 44.8827 28.6977C43.1291 29.003 42.0909 29.4218 42.0647 29.3433C42.056 29.3171 42.3002 29.195 42.7714 29.003C43.0069 28.8983 43.2948 28.7936 43.6438 28.6977C43.9928 28.6017 44.3767 28.4621 44.8303 28.3836C45.7115 28.1742 46.7933 28.0521 47.9973 28.0259C49.2013 28.0259 50.5274 28.1306 51.8797 28.4185C53.232 28.7238 54.4796 29.1775 55.5701 29.6923C56.652 30.2244 57.5768 30.7915 58.2922 31.3499C58.6673 31.6116 58.9639 31.8908 59.2344 32.1264C59.5136 32.3532 59.723 32.58 59.8975 32.772C60.2377 33.1297 60.4209 33.3391 60.3948 33.3652Z" fill="#263238"/>
<path d="M58.2405 36.794C58.1794 36.855 57.4116 36.0437 55.9459 35.0316C55.2218 34.5169 54.297 33.9934 53.2326 33.4961C52.1595 33.025 50.9381 32.5888 49.6207 32.2921C48.2946 32.013 47.0034 31.8908 45.8343 31.8734C44.6652 31.8821 43.6008 31.9693 42.7284 32.1264C40.9748 32.4317 39.9366 32.8505 39.9104 32.772C39.9017 32.7458 40.1459 32.6237 40.6171 32.4317C40.8526 32.327 41.1405 32.2223 41.4895 32.1264C41.8385 32.0304 42.2224 31.8908 42.676 31.8123C43.5572 31.6029 44.639 31.4808 45.843 31.4546C47.047 31.4546 48.3731 31.5593 49.7254 31.8472C51.0777 32.1526 52.3253 32.6062 53.4158 33.121C54.4977 33.6532 55.4225 34.2202 56.1379 34.7786C56.513 35.0403 56.8096 35.3195 57.0801 35.5551C57.3593 35.7819 57.5687 36.0088 57.7432 36.2007C58.0834 36.5584 58.2579 36.7765 58.2405 36.794Z" fill="#263238"/>
<path d="M25.3579 41.4007C25.2706 41.4094 25.2706 40.1443 24.7646 38.2075C24.276 36.2794 23.1767 33.6621 21.1439 31.385C19.1111 29.1079 16.6421 27.7207 14.7838 27.014C12.9168 26.2986 11.6605 26.1503 11.6779 26.0631C11.6779 26.0369 12.0007 26.0456 12.5591 26.1241C13.1262 26.2027 13.9288 26.3772 14.8972 26.7087C16.8253 27.3456 19.3991 28.7328 21.4929 31.0796C23.5868 33.4265 24.6686 36.1398 25.0874 38.129C25.3055 39.1236 25.384 39.9524 25.4015 40.5195C25.4102 41.0866 25.384 41.4007 25.3579 41.4007Z" fill="#263238"/>
<path d="M27.7739 37.5008C27.6866 37.5095 27.6866 36.2444 27.1806 34.3076C26.692 32.3795 25.5928 29.7622 23.56 27.4851C21.5272 25.208 19.0581 23.8208 17.1998 23.1141C15.3328 22.3987 14.0765 22.2504 14.0939 22.1632C14.0939 22.137 14.4167 22.1457 14.9751 22.2242C15.5422 22.3028 16.3448 22.4772 17.3133 22.8088C19.2414 23.4457 21.8151 24.8328 23.9089 27.1797C26.0028 29.5266 27.0846 32.2399 27.5034 34.2291C27.7215 35.2237 27.8001 36.0525 27.8175 36.6196C27.8262 37.1867 27.8 37.5008 27.7739 37.5008Z" fill="#263238"/>
<path d="M30.1909 33.6008C30.1036 33.6096 30.1036 32.3445 29.5976 30.4077C29.109 28.4796 28.0098 25.8623 25.977 23.5852C23.9442 21.3081 21.4751 19.9209 19.6168 19.2142C17.7498 18.4988 16.4935 18.3505 16.5109 18.2633C16.5109 18.2371 16.8337 18.2458 17.3921 18.3243C17.9592 18.4029 18.7618 18.5773 19.7302 18.9089C21.6584 19.5458 24.2321 20.9329 26.3259 23.2798C28.4198 25.6267 29.5016 28.34 29.9204 30.3292C30.1385 31.3238 30.217 32.1526 30.2345 32.7197C30.2432 33.2868 30.2171 33.6008 30.1909 33.6008Z" fill="#263238"/>
<path d="M32.6079 29.701C32.5206 29.7097 32.5206 28.4446 32.0146 26.5078C31.526 24.5797 30.4267 21.9624 28.3939 19.6853C26.3611 17.4082 23.8921 16.021 22.0338 15.3143C20.1668 14.5989 18.9105 14.4506 18.9279 14.3634C18.9279 14.3372 19.2507 14.3459 19.8091 14.4244C20.3674 14.503 21.1788 14.6774 22.1472 15.009C24.0753 15.6459 26.6491 17.033 28.7429 19.3799C30.8368 21.7268 31.9186 24.4401 32.3374 26.4293C32.5555 27.4239 32.634 28.2527 32.6515 28.8198C32.6602 29.3869 32.634 29.701 32.6079 29.701Z" fill="#263238"/>
<path d="M35.0239 25.8011C34.9366 25.8098 34.9366 24.5447 34.4306 22.6079C33.942 20.6798 32.8428 18.0625 30.81 15.7854C28.7772 13.5083 26.3081 12.1211 24.4498 11.4144C22.5828 10.699 21.3265 10.5507 21.3439 10.4635C21.3439 10.4373 21.6667 10.446 22.2251 10.5245C22.7835 10.603 23.5948 10.7775 24.5633 11.1091C26.4914 11.746 29.0651 13.1331 31.1589 15.48C33.2528 17.8269 34.3346 20.5402 34.7534 22.5294C34.9715 23.524 35.0501 24.3528 35.0675 24.9199C35.0762 25.487 35.05 25.8011 35.0239 25.8011Z" fill="#263238"/>
<path d="M37.4409 21.9011C37.3536 21.9099 37.3536 20.6448 36.8476 18.708C36.359 16.7799 35.2598 14.1626 33.227 11.8855C31.1942 9.60839 28.7251 8.22121 26.8668 7.51453C24.9998 6.79912 23.7435 6.6508 23.7609 6.56356C23.7609 6.53738 24.0837 6.54611 24.6421 6.62463C25.2092 6.70315 26.0118 6.87763 26.9802 7.20916C28.9084 7.84605 31.4821 9.23324 33.5759 11.5801C35.6698 13.927 36.7517 16.6403 37.1704 18.6295C37.3885 19.6241 37.467 20.4529 37.4845 21.02C37.4932 21.5871 37.4758 21.9011 37.4409 21.9011Z" fill="#263238"/>
<path d="M39.2293 36.7938L33.541 45.0297C33.541 45.0297 42.2393 44.0002 49.8557 48.8423L55.134 40.0131C55.1253 40.0219 47.0639 33.6966 39.2293 36.7938Z" fill="#EBEBEB"/>
</svg>
