<svg width="40" height="34" viewBox="0 0 40 34" fill="none" xmlns="http://www.w3.org/2000/svg">
<path d="M3.46289 31.38L3.55886 33.2557C3.55886 33.2557 13.5222 29.068 19.5072 32.1303C19.7165 32.5142 20.1004 32.7584 20.5279 32.8021L23.0057 33.0289C23.5379 33.0638 24.0439 32.7672 24.2707 32.2786C24.2707 32.2786 30.1684 29.4868 36.2668 32.6974L38.5788 33.7443L34.0508 9.95272L5.54804 4.49121L3.46289 31.38Z" fill="#E0E0E0"/>
<path d="M1.86719 28.7452L1.96316 32.1215C1.96316 32.1215 11.8392 26.2238 21.724 32.3135L19.2114 16.0947C19.2027 16.0947 2.61749 25.3077 1.86719 28.7452Z" fill="#EBEBEB"/>
<path d="M0 4.31677C0 4.31677 11.8391 -4.79156 20.7991 7.92869L21.7239 32.3135C21.7239 32.3135 10.8968 21.3207 0.767752 29.4694L0 4.31677Z" fill="#F5F5F5"/>
<path d="M21.7239 32.3134C21.7239 32.3134 31.9315 25.805 39.3124 32.706L37.1836 10.4325L20.834 8.76611L21.7239 32.3134Z" fill="#EBEBEB"/>
<path d="M20.7812 7.94619C20.7812 7.94619 24.3059 0.0592863 31.7915 0.827038L36.5812 1.48137L39.1462 23.8596C39.1462 23.8596 27.4118 22.5073 21.7148 32.3398L20.7812 7.94619Z" fill="#F5F5F5"/>
<path d="M21.7243 32.3137C21.6981 32.3137 21.6632 31.9735 21.6196 31.3627C21.5847 30.6648 21.5324 29.7924 21.48 28.7629C21.3841 26.4771 21.2532 23.4846 21.1049 20.1693C20.9653 16.854 20.8344 13.8615 20.7297 11.5757C20.6861 10.5375 20.6425 9.66503 20.6163 8.9758C20.5901 8.35637 20.5901 8.01611 20.625 8.01611C20.6512 8.01611 20.7036 8.34764 20.7734 8.96708C20.8431 9.57779 20.9217 10.4677 21.0176 11.567C21.1921 13.7655 21.3666 16.8016 21.5062 20.1606C21.6458 23.5195 21.733 26.5556 21.7679 28.7541C21.7854 29.8534 21.7941 30.7433 21.7854 31.3627C21.7679 31.9735 21.7505 32.3137 21.7243 32.3137Z" fill="#E0E0E0"/>
<path d="M34.0341 5.1633C34.0254 5.2331 33.2664 5.0935 32.0537 5.11095C30.841 5.1284 29.1659 5.37269 27.4559 6.08809C25.7546 6.81222 24.4023 7.84171 23.5473 8.70543C22.6836 9.56043 22.2648 10.1973 22.2038 10.1537C22.1776 10.1362 22.2648 9.97047 22.4481 9.67384C22.6225 9.37721 22.9279 8.96716 23.338 8.50477C24.1581 7.57125 25.5278 6.46324 27.2901 5.72167C29.0525 4.98009 30.8061 4.7707 32.045 4.83177C32.6644 4.85794 33.1704 4.91902 33.5019 5.00626C33.8509 5.08478 34.0341 5.13713 34.0341 5.1633Z" fill="#E0E0E0"/>
<path d="M34.6533 7.70188C34.6446 7.77167 33.8855 7.63208 32.6728 7.64953C31.4601 7.66698 29.785 7.91126 28.075 8.62667C26.3738 9.3508 25.0215 10.3803 24.1665 11.244C23.3028 12.099 22.884 12.7359 22.8229 12.6923C22.7967 12.6748 22.884 12.509 23.0672 12.2124C23.2417 11.9158 23.547 11.5057 23.9571 11.0433C24.7772 10.1098 26.1469 9.00182 27.9093 8.26024C29.6716 7.51866 31.4252 7.30927 32.6641 7.37035C33.2835 7.39652 33.7896 7.45759 34.1211 7.54484C34.4788 7.62336 34.662 7.6757 34.6533 7.70188Z" fill="#E0E0E0"/>
<path d="M34.8115 10.4675C34.8028 10.5373 34.0437 10.3977 32.831 10.4152C31.6183 10.4326 29.9432 10.6769 28.2332 11.3923C26.532 12.1164 25.1797 13.1459 24.3247 14.0096C23.461 14.8646 23.0422 15.5015 22.9811 15.4579C22.9549 15.4404 23.0422 15.2747 23.2254 14.978C23.3999 14.6814 23.7052 14.2714 24.1153 13.809C24.9354 12.8754 26.3051 11.7674 28.0675 11.0259C29.8298 10.2843 31.5834 10.0749 32.8223 10.136C33.4417 10.1621 33.9478 10.2232 34.2793 10.3105C34.6283 10.389 34.8115 10.4413 34.8115 10.4675Z" fill="#E0E0E0"/>
<path d="M35.333 13.0412C35.3242 13.111 34.5652 12.9714 33.3525 12.9889C32.1398 13.0063 30.4647 13.2506 28.7547 13.966C27.0535 14.6901 25.7012 15.7196 24.8462 16.5833C23.9824 17.4383 23.5637 18.0752 23.5026 18.0316C23.4764 18.0142 23.5637 17.8484 23.7469 17.5518C23.9214 17.2551 24.2267 16.8451 24.6368 16.3827C25.4569 15.4492 26.8266 14.3412 28.589 13.5996C30.3513 12.858 32.1049 12.6486 33.3438 12.701C33.9632 12.7271 34.4692 12.7882 34.8008 12.8754C35.1585 12.9627 35.3417 13.015 35.333 13.0412Z" fill="#E0E0E0"/>
<path d="M35.9365 15.7546C35.9278 15.8244 35.1687 15.6848 33.956 15.7023C32.7433 15.7197 31.0682 15.964 29.3582 16.6794C27.657 17.4035 26.3047 18.433 25.4497 19.2967C24.586 20.1517 24.1672 20.7886 24.1061 20.745C24.0799 20.7275 24.1672 20.5618 24.3504 20.2652C24.5249 19.9685 24.8303 19.5585 25.2403 19.0961C26.0604 18.1626 27.4301 17.0546 29.1925 16.313C30.9548 15.5714 32.7084 15.362 33.9473 15.4231C34.5667 15.4493 35.0728 15.5103 35.4043 15.5976C35.762 15.6674 35.9452 15.7197 35.9365 15.7546Z" fill="#E0E0E0"/>
<path d="M36.7304 18.7821C36.7216 18.8518 35.9015 18.6948 34.5841 18.7472C33.9211 18.7559 33.1446 18.8606 32.2809 19.0089C31.4259 19.1921 30.5011 19.4364 29.5589 19.7941C28.6253 20.1605 27.7616 20.5967 27.0113 21.0417C26.2785 21.5128 25.6328 21.9665 25.153 22.4201C24.1671 23.3013 23.7135 23.9993 23.6524 23.9557C23.6262 23.9382 23.7309 23.755 23.9316 23.4409C24.0276 23.2751 24.1671 23.0919 24.3416 22.8913C24.5074 22.6819 24.7081 22.4463 24.9523 22.2195C25.4235 21.7309 26.0691 21.2336 26.8107 20.7363C27.5697 20.2565 28.4421 19.8028 29.4105 19.4277C30.379 19.0612 31.3299 18.817 32.2111 18.6599C33.0923 18.529 33.8949 18.4505 34.5754 18.4767C34.9157 18.468 35.221 18.5029 35.4828 18.529C35.7532 18.5552 35.9801 18.5814 36.1633 18.6337C36.5297 18.7035 36.7304 18.7559 36.7304 18.7821Z" fill="#E0E0E0"/>
<path d="M36.8432 21.216C36.8345 21.2858 36.0144 21.1287 34.6883 21.1985C34.0252 21.216 33.24 21.3468 32.385 21.5213C31.53 21.7307 30.614 22.0099 29.6805 22.3938C28.7557 22.7951 27.9094 23.2575 27.1678 23.7286C26.4437 24.2259 25.8068 24.697 25.3357 25.1594C24.3585 26.058 23.9049 26.756 23.8438 26.7211C23.8176 26.7037 23.9223 26.5204 24.123 26.2064C24.219 26.0406 24.3585 25.8574 24.533 25.648C24.6988 25.4386 24.8995 25.203 25.1437 24.9675C25.6061 24.4702 26.243 23.9642 26.9672 23.4407C27.7175 22.9434 28.5812 22.4548 29.5321 22.0448C30.4918 21.6522 31.4428 21.3643 32.3153 21.1811C33.1964 21.024 34.0078 20.9193 34.6883 20.9368C35.0286 20.9281 35.3339 20.9455 35.6044 20.9804C35.8748 20.9979 36.1017 21.0328 36.2849 21.0764C36.6513 21.1287 36.852 21.1898 36.8432 21.216Z" fill="#E0E0E0"/>
<path d="M18.2778 26.0406C18.2254 26.0842 17.7107 25.3862 16.6638 24.5138C15.6255 23.6414 13.9854 22.6206 11.9613 22.1582C9.9372 21.6958 8.01782 21.8877 6.70043 22.2193C5.37432 22.5508 4.61529 22.9521 4.58039 22.8911C4.57167 22.8649 4.74615 22.7427 5.09513 22.5595C5.43539 22.3763 5.95885 22.1495 6.63064 21.9488C7.95675 21.5388 9.95465 21.2857 12.0572 21.7656C14.1598 22.2542 15.8437 23.3447 16.8557 24.2957C17.3704 24.7755 17.7369 25.203 17.9724 25.5171C18.1905 25.8399 18.2952 26.0231 18.2778 26.0406Z" fill="#E0E0E0"/>
<path d="M18.0864 22.9087C18.034 22.9524 17.5193 22.2544 16.4724 21.382C15.4341 20.5095 13.7939 19.4888 11.7699 19.0264C9.7458 18.564 7.82642 18.7559 6.50903 19.0874C5.18291 19.419 4.42388 19.8203 4.38898 19.7592C4.38026 19.733 4.55475 19.6109 4.90373 19.4277C5.24398 19.2445 5.76745 19.0176 6.43923 18.817C7.76535 18.4069 9.76325 18.1539 11.8658 18.6338C13.9684 19.1223 15.6523 20.2129 16.6643 21.1638C17.179 21.6437 17.5455 22.0712 17.781 22.3853C17.9991 22.7081 18.1038 22.8913 18.0864 22.9087Z" fill="#E0E0E0"/>
<path d="M17.8938 19.7764C17.8415 19.82 17.3268 19.1221 16.2798 18.2496C15.2416 17.3772 13.6014 16.3564 11.5773 15.894C9.55327 15.4316 7.63389 15.6236 6.3165 15.9551C4.99038 16.2866 4.23135 16.688 4.19645 16.6269C4.17901 16.6007 4.36222 16.4786 4.70247 16.2954C5.04273 16.1121 5.56619 15.8853 6.23798 15.6846C7.56409 15.2746 9.56199 15.0216 11.6646 15.5014C13.7672 15.99 15.451 17.0806 16.463 18.0315C16.9778 18.5114 17.3442 18.9389 17.5798 19.253C17.8066 19.5758 17.9113 19.759 17.8938 19.7764Z" fill="#E0E0E0"/>
<path d="M17.7016 16.6446C17.6493 16.6882 17.1345 15.9902 16.0876 15.1178C15.0494 14.2454 13.4092 13.2246 11.3851 12.7622C9.36103 12.2998 7.44165 12.4917 6.12426 12.8233C4.79814 13.1548 4.03912 13.5561 4.00422 13.4951C3.99549 13.4689 4.16998 13.3467 4.51896 13.1635C4.85921 12.9803 5.38268 12.7535 6.05446 12.5528C7.38058 12.1428 9.37848 11.8898 11.4811 12.3696C13.5837 12.8582 15.2675 13.9487 16.2795 14.8997C16.7943 15.3795 17.1607 15.807 17.3963 16.1211C17.6144 16.4439 17.7191 16.6271 17.7016 16.6446Z" fill="#E0E0E0"/>
<path d="M17.5102 13.5123C17.4579 13.5559 16.9431 12.8579 15.8962 11.9855C14.858 11.113 13.2178 10.0923 11.1937 9.62987C9.16963 9.16748 7.25025 9.35942 5.93285 9.69095C4.60674 10.0225 3.84771 10.4238 3.81281 10.3627C3.80409 10.3366 3.97858 10.2144 4.32755 10.0312C4.66781 9.84798 5.19128 9.62115 5.86306 9.42049C7.18918 9.01044 9.18708 8.75743 11.2897 9.23727C13.3923 9.72584 15.0761 10.8164 16.0881 11.7674C16.6029 12.2472 16.9693 12.6747 17.2048 12.9888C17.423 13.3116 17.5277 13.4948 17.5102 13.5123Z" fill="#E0E0E0"/>
<path d="M17.3188 10.3804C17.2665 10.424 16.7517 9.72609 15.7048 8.85364C14.6666 7.9812 13.0264 6.96043 11.0023 6.49804C8.97822 6.03564 7.05884 6.22758 5.74145 6.55911C4.41533 6.89064 3.6563 7.29196 3.62141 7.23089C3.61268 7.20472 3.78717 7.08258 4.13615 6.89936C4.4764 6.71615 4.99987 6.48932 5.67165 6.28865C6.99777 5.8786 8.99567 5.62559 11.0983 6.10544C13.2009 6.59401 14.8847 7.68456 15.8967 8.63553C16.4115 9.11538 16.7779 9.54287 17.0134 9.85696C17.2316 10.1798 17.3362 10.363 17.3188 10.3804Z" fill="#E0E0E0"/>
</svg>
