<svg width="49" height="42" viewBox="0 0 49 42" fill="none" xmlns="http://www.w3.org/2000/svg">
<path d="M45.7007 35.5552L45.7531 37.7538C45.7531 37.7538 33.7308 33.7492 27.0217 37.8584C26.8123 38.3208 26.3935 38.6524 25.8875 38.7309L23.0171 39.2107C22.3977 39.298 21.7782 38.9926 21.4729 38.443C21.4729 38.443 14.3276 35.7035 7.49633 40.0047L4.8877 41.4355L8.05468 13.2293L40.8674 4.3042L45.7007 35.5552Z" fill="#E0E0E0"/>
<path d="M47.3413 32.3356L47.5332 36.2965C47.5332 36.2965 35.476 30.2853 24.457 38.2769L25.9489 19.1006C25.9489 19.1006 46.1547 28.3921 47.3413 32.3356Z" fill="#EBEBEB"/>
<path d="M47.341 3.62357C47.341 3.62357 32.6927 -5.9646 23.3662 9.69579L24.4568 38.2771C24.4568 38.2771 36.1301 24.4663 48.6933 33.0948L47.341 3.62357Z" fill="#F5F5F5"/>
<path d="M24.4565 38.2771C24.4565 38.2771 11.9456 31.5767 3.93652 40.3012L4.44256 14.0842L23.4008 10.6816L24.4565 38.2771Z" fill="#EBEBEB"/>
<path d="M23.3836 9.71318C23.3836 9.71318 18.0093 2.43699 8.13326 3.38795L1.58992 4.32147L0.28125 30.6955C0.28125 30.6955 16.9275 27.3191 24.4742 38.2945L23.3836 9.71318Z" fill="#F5F5F5"/>
<path d="M24.4571 38.2773C24.492 38.2773 24.5007 37.876 24.492 37.1519C24.4745 36.3318 24.4571 35.311 24.4309 34.0983C24.3437 31.4199 24.2303 27.9127 24.0994 24.0303C23.9685 20.1479 23.8551 16.6407 23.7679 13.9623C23.7242 12.7496 23.6981 11.7288 23.6719 10.9087C23.6457 10.1846 23.6108 9.79199 23.5847 9.79199C23.5498 9.79199 23.5236 10.1933 23.4974 10.9087C23.4625 11.6329 23.4538 12.6711 23.4451 13.9623C23.4363 16.5447 23.5061 20.1043 23.637 24.0477C23.7679 27.9825 23.9424 31.5421 24.0994 34.1158C24.1779 35.407 24.2477 36.4452 24.3088 37.1606C24.3698 37.876 24.4222 38.2773 24.4571 38.2773Z" fill="#E0E0E0"/>
<path d="M7.65358 7.64561C7.67103 7.72413 8.54346 7.49729 9.95682 7.41005C11.3702 7.3228 13.3594 7.46239 15.4183 8.1429C17.4686 8.84086 19.1437 9.92269 20.2168 10.8475C21.2986 11.7723 21.8483 12.479 21.9181 12.4266C21.9442 12.4092 21.8221 12.2172 21.5865 11.8857C21.351 11.5542 20.9671 11.1092 20.4349 10.6032C19.388 9.59116 17.6867 8.41336 15.5667 7.69795C13.4379 6.99127 11.3789 6.8953 9.93065 7.07852C9.20652 7.16576 8.63073 7.27918 8.23813 7.41005C7.85426 7.54091 7.64486 7.61944 7.65358 7.64561Z" fill="#E0E0E0"/>
<path d="M7.14772 10.6642C7.16517 10.7427 8.0376 10.5158 9.45096 10.4286C10.8643 10.3414 12.8535 10.4809 14.9125 11.1615C16.9627 11.8594 18.6378 12.9412 19.7109 13.866C20.7928 14.7908 21.3424 15.4975 21.4122 15.4452C21.4384 15.4277 21.3162 15.2358 21.0806 14.9042C20.8451 14.5727 20.4612 14.1278 19.929 13.6218C18.8821 12.6097 17.1808 11.4319 15.0608 10.7165C12.932 10.0098 10.8731 9.91386 9.42479 10.0971C8.70066 10.1843 8.12485 10.2977 7.73225 10.4286C7.34837 10.5595 7.139 10.638 7.14772 10.6642Z" fill="#E0E0E0"/>
<path d="M7.21706 13.9186C7.23451 13.9971 8.10694 13.7702 9.5203 13.683C10.9337 13.5957 12.9228 13.7353 14.9818 14.4158C17.0321 15.1138 18.7072 16.1956 19.7803 17.1204C20.8621 18.0452 21.4117 18.7519 21.4815 18.6996C21.5077 18.6821 21.3856 18.4902 21.15 18.1586C20.9145 17.8271 20.5306 17.3822 19.9984 16.8761C18.9514 15.8641 17.2502 14.6863 15.1301 13.9709C13.0014 13.2642 10.9424 13.1683 9.49413 13.3515C8.77 13.4387 8.19421 13.5521 7.80161 13.683C7.41773 13.8051 7.20833 13.8837 7.21706 13.9186Z" fill="#E0E0E0"/>
<path d="M6.83327 16.9635C6.85072 17.042 7.72318 16.8152 9.13654 16.7279C10.5499 16.6407 12.5391 16.7803 14.598 17.4608C16.6483 18.1587 18.3234 19.2406 19.3965 20.1654C20.4783 21.0901 21.028 21.7968 21.0978 21.7445C21.1239 21.727 21.0018 21.5351 20.7662 21.2036C20.5307 20.872 20.1468 20.4271 19.6146 19.9211C18.5677 18.909 16.8664 17.7312 14.7464 17.0158C12.6176 16.3091 10.5586 16.2132 9.11037 16.3964C8.38624 16.4836 7.81042 16.5971 7.41782 16.7279C7.03394 16.8588 6.82455 16.9373 6.83327 16.9635Z" fill="#E0E0E0"/>
<path d="M6.36257 20.1827C6.38002 20.2612 7.25247 20.0344 8.66584 19.9472C10.0792 19.8599 12.0684 19.9995 14.1274 20.68C16.1776 21.378 17.8527 22.4598 18.9258 23.3846C20.0076 24.3094 20.5573 25.0161 20.6271 24.9637C20.6532 24.9463 20.5311 24.7543 20.2955 24.4228C20.06 24.0913 19.6761 23.6463 19.1439 23.1403C18.097 22.1283 16.3957 20.9505 14.2757 20.2351C12.1469 19.5284 10.0879 19.4324 8.63966 19.6156C7.91553 19.7029 7.33972 19.8163 6.94712 19.9472C6.56324 20.078 6.35384 20.1565 6.36257 20.1827Z" fill="#E0E0E0"/>
<path d="M5.71704 23.8032C5.73449 23.8817 6.67673 23.6287 8.22969 23.5677C9.00616 23.5153 9.92222 23.5764 10.943 23.6724C11.955 23.8032 13.063 24.0126 14.1972 24.3441C15.3227 24.6931 16.3696 25.1206 17.2857 25.5743C18.1843 26.0629 18.9782 26.534 19.5802 27.0225C20.8104 27.9648 21.3949 28.7413 21.4647 28.6889C21.4908 28.6715 21.36 28.4621 21.0895 28.1131C20.9674 27.9299 20.7842 27.7292 20.5573 27.5024C20.3392 27.2756 20.0862 27.0138 19.7809 26.7695C19.1876 26.2373 18.3937 25.7226 17.4863 25.1991C16.5615 24.7106 15.4884 24.2569 14.3368 23.9079C13.1765 23.5677 12.0335 23.367 10.9953 23.2536C9.94839 23.1751 9.00615 23.1576 8.21222 23.2536C7.81962 23.2798 7.46192 23.3408 7.15657 23.4019C6.84249 23.4542 6.58076 23.5066 6.37137 23.5764C5.93515 23.6811 5.70831 23.7683 5.71704 23.8032Z" fill="#E0E0E0"/>
<path d="M5.79516 26.6475C5.81261 26.7347 6.76359 26.473 8.31654 26.4381C9.09302 26.4032 10.0178 26.4817 11.0386 26.6038C12.0506 26.7696 13.1586 27.0139 14.2841 27.389C15.4095 27.7729 16.439 28.244 17.3463 28.7239C18.2362 29.2386 19.0214 29.7272 19.6147 30.2245C20.8361 31.1929 21.4294 31.9694 21.4992 31.9083C21.5254 31.8909 21.3945 31.6815 21.124 31.3238C20.9932 31.1406 20.8187 30.9399 20.6006 30.7131C20.3912 30.4775 20.1382 30.2245 19.8328 29.9628C19.2483 29.4218 18.4631 28.8809 17.5644 28.34C16.6484 27.8253 15.5927 27.3367 14.4411 26.9441C13.2895 26.5689 12.1553 26.3247 11.1084 26.1763C10.0614 26.0716 9.11047 26.0193 8.31654 26.1065C7.91522 26.124 7.56624 26.1763 7.25216 26.2374C6.93808 26.281 6.67634 26.3421 6.45823 26.4119C6.01328 26.534 5.78644 26.6213 5.79516 26.6475Z" fill="#E0E0E0"/>
<path d="M27.9199 30.6346C27.9897 30.6783 28.5219 29.8233 29.6735 28.7065C30.8077 27.5898 32.6399 26.2637 34.9606 25.5308C37.29 24.8067 39.5496 24.859 41.1113 25.1382C42.6904 25.4087 43.6152 25.81 43.6501 25.7315C43.6589 25.7053 43.4407 25.5745 43.022 25.3912C42.6032 25.208 41.975 24.9899 41.1724 24.8154C39.5845 24.449 37.2377 24.3356 34.8123 25.0859C32.3956 25.8362 30.5285 27.267 29.4293 28.471C28.8709 29.073 28.4783 29.6052 28.234 29.9978C27.9984 30.3904 27.8938 30.6259 27.9199 30.6346Z" fill="#E0E0E0"/>
<path d="M27.8593 26.9613C27.9291 27.0049 28.4613 26.1499 29.6129 25.0332C30.7471 23.9165 32.5792 22.5903 34.8999 21.8575C37.2294 21.1334 39.489 21.1857 41.0507 21.4649C42.6298 21.7354 43.5546 22.1367 43.5895 22.0582C43.5982 22.032 43.3801 21.9011 42.9613 21.7179C42.5425 21.5347 41.9144 21.3166 41.1117 21.1421C39.5239 20.7757 37.177 20.6622 34.7516 21.4125C32.3349 22.1628 30.4679 23.5937 29.3686 24.7976C28.8102 25.3996 28.4176 25.9318 28.1734 26.3244C27.9465 26.717 27.8418 26.9439 27.8593 26.9613Z" fill="#E0E0E0"/>
<path d="M27.8074 23.2797C27.8772 23.3233 28.4094 22.4683 29.561 21.3516C30.6952 20.2348 32.5273 18.9087 34.8481 18.1759C37.1775 17.4517 39.4371 17.5041 40.9988 17.7833C42.5779 18.0537 43.5027 18.455 43.5376 18.3765C43.5463 18.3503 43.3282 18.2195 42.9094 18.0363C42.4907 17.853 41.8625 17.6349 41.0599 17.4604C39.472 17.094 37.1251 16.9806 34.6997 17.7309C32.2831 18.4812 30.416 19.912 29.3167 21.116C28.7584 21.718 28.3658 22.2502 28.1215 22.6428C27.8946 23.0354 27.7812 23.2709 27.8074 23.2797Z" fill="#E0E0E0"/>
<path d="M27.7539 19.6068C27.8237 19.6504 28.3559 18.7954 29.5075 17.6787C30.6417 16.562 32.4738 15.2359 34.7945 14.503C37.124 13.7789 39.3836 13.8312 40.9453 14.1104C42.5244 14.3809 43.4492 14.7822 43.4841 14.7037C43.4928 14.6775 43.2747 14.5466 42.856 14.3634C42.4372 14.1802 41.809 13.9621 41.0064 13.7876C39.4185 13.4212 37.0716 13.3077 34.6462 14.0581C32.2296 14.8084 30.3625 16.2392 29.2632 17.4431C28.7049 18.0451 28.3123 18.5773 28.068 18.9699C27.8324 19.3625 27.7278 19.5894 27.7539 19.6068Z" fill="#E0E0E0"/>
<path d="M27.7022 15.9252C27.772 15.9688 28.3041 15.1138 29.4558 13.9971C30.5899 12.8803 32.4221 11.5542 34.7428 10.8214C37.0722 10.0972 39.3319 10.1496 40.8935 10.4288C42.4727 10.6992 43.3975 11.1005 43.4324 11.022C43.4411 10.9958 43.223 10.865 42.8042 10.6818C42.3854 10.4986 41.7573 10.2804 40.9546 10.106C39.3668 9.73953 37.0199 9.62611 34.5945 10.3764C32.1778 11.1267 30.3108 12.5575 29.2115 13.7615C28.6531 14.3635 28.2605 14.8957 28.0162 15.2883C27.7807 15.6809 27.676 15.9164 27.7022 15.9252Z" fill="#E0E0E0"/>
<path d="M27.6504 12.2518C27.7202 12.2954 28.2524 11.4405 29.404 10.3237C30.5382 9.20699 32.3703 7.88087 34.691 7.14802C37.0205 6.42389 39.2801 6.47624 40.8418 6.75542C42.4209 7.02588 43.3457 7.4272 43.3806 7.34868C43.3893 7.32251 43.1712 7.19164 42.7524 7.00843C42.3337 6.82522 41.7055 6.6071 40.9028 6.43262C39.315 6.06619 36.9681 5.95277 34.5427 6.70307C32.126 7.45338 30.259 8.88419 29.1597 10.0882C28.6014 10.6901 28.2088 11.2223 27.9645 11.6149C27.7289 12.0075 27.6242 12.2344 27.6504 12.2518Z" fill="#E0E0E0"/>
</svg>
