<svg width="30" height="30" viewBox="0 0 30 30" fill="none" xmlns="http://www.w3.org/2000/svg">
<g clip-path="url(#clip0_501_5543)">
<path d="M26.459 4.58916C26.459 4.58836 26.459 4.58745 26.459 4.58664C26.459 4.3029 26.3484 4.03603 26.1474 3.83452C25.9441 3.63078 25.6735 3.51855 25.3854 3.51855L9.2879 3.51855C8.6976 3.51855 8.21618 4.00068 8.21467 4.59341C8.20871 7.0922 7.6879 11.2787 4.66556 14.1668L21.5121 14.1668C21.7122 14.1668 21.9002 14.1157 22.0557 14.0192C25.8731 11.6488 26.4531 7.09362 26.459 4.58916Z" fill="#27A857"/>
<path d="M9.28782 26.4816L25.3854 26.4816C25.6735 26.4816 25.9441 26.3694 26.1474 26.1657C26.3484 25.9641 26.459 25.6971 26.459 25.4136C26.459 25.4127 26.459 25.4118 26.459 25.411C26.453 22.9067 25.873 18.3515 22.0556 15.981C21.9001 15.8845 21.7121 15.8335 21.512 15.8335L4.66558 15.8335C7.68792 18.7216 8.20873 22.9081 8.21469 25.4069C8.2162 25.9995 8.69762 26.4816 9.28782 26.4816Z" fill="#27A857"/>
<path d="M22.7461 28.9265L22.7461 28.1481L9.28737 28.1481C7.78019 28.1481 6.5512 26.9201 6.54746 25.4106C6.54241 23.2911 6.12797 19.7963 3.78544 17.3213C4.83352 21.6019 4.1522 26.1145 3.56614 28.6862C3.49301 29.0073 3.56856 29.3391 3.77362 29.5964C3.97816 29.8528 4.28392 29.9998 4.6121 29.9998L21.6728 29.9998C22.2646 29.9999 22.7461 29.5183 22.7461 28.9265Z" fill="#27A857"/>
<path d="M9.28736 1.85172L22.7461 1.85172L22.7461 1.07334C22.7461 0.481618 22.2646 -2.10478e-08 21.6728 -4.6917e-08L4.6124 -7.92649e-07C4.28411 -8.06999e-07 3.97846 0.14707 3.77391 0.403435C3.56896 0.660506 3.4931 0.992023 3.56644 1.31364C4.1526 3.88536 4.83381 8.39801 3.78573 12.6784C6.12816 10.2035 6.54251 6.70871 6.54756 4.58921C6.5512 3.07981 7.78019 1.85172 9.28736 1.85172Z" fill="#27A857"/>
</g>
<defs>
<clipPath id="clip0_501_5543">
<rect width="30" height="30" fill="white" transform="translate(30) rotate(90)"/>
</clipPath>
</defs>
</svg>
